<svg width="252" height="440" viewBox="418 100 252 440" xmlns="http://www.w3.org/2000/svg">
<defs>
<linearGradient id="rgFace" x1="0" y1="0" x2="0" y2="1"><stop offset="0" stop-color="#FFFFFF"></stop><stop offset="1" stop-color="#ECECEC"></stop></linearGradient>
</defs>

<g stroke="#23201C" stroke-width="3.5" stroke-linejoin="round" stroke-linecap="round">

<rect x="452" y="392" width="186" height="20" rx="5" fill="#C98A3D"></rect>
<rect x="468" y="206" width="150" height="190" rx="6" fill="#E0A455"></rect>
<rect x="592" y="208" width="26" height="186" fill="#C5873A" stroke="none"></rect>

<polygon points="543,116 656,212 430,212" fill="#E0543B"></polygon>
<g fill="#C23E29" stroke="#9E3120" stroke-width="2">
<path d="M452 196 q 14 14 28 0 q 14 14 28 0 q 14 14 28 0 q 14 14 28 0 q 14 14 28 0 q 14 14 28 0 l0 14 l-168 0 Z"></path>
<path d="M468 170 q 14 14 28 0 q 14 14 28 0 q 14 14 28 0 q 14 14 28 0 q 14 14 28 0 l0 14 l-140 0 Z"></path>
</g>
<polygon points="543,116 656,212 430,212" fill="none"></polygon>
<path d="M543 116 L430 212 M543 116 L656 212" stroke="#FBF3E0" stroke-width="7"></path>
<circle cx="543" cy="116" r="7" fill="#E0A455"></circle>

<path d="M512 254 L512 224 A28 28 0 0 1 568 224 L568 254 Z" fill="#1E1A12"></path>
<g fill="#3FA463" stroke="#23201C" stroke-width="3">
<path d="M486 214 l24 4 l0 46 l-24 6 Z"></path>
<path d="M594 214 l-24 4 l0 46 l24 6 Z"></path>
</g>
<g stroke="#256E43" stroke-width="2.5"><path d="M492 224 h12 M492 232 h12 M492 240 h12 M492 248 h12 M576 224 h12 M576 232 h12 M576 240 h12 M576 248 h12"></path></g>

<circle cx="540" cy="316" r="40" fill="url(#rgFace)"></circle>
<circle cx="540" cy="316" r="40" fill="none" stroke="#C99A50" stroke-width="4"></circle>
<g stroke="#3a2718" stroke-width="2" stroke-linecap="round"><path d="M540 286 v6 M570 316 h-6 M540 346 v-6 M510 316 h6"></path></g>
<g stroke="#23201C" stroke-width="3.5" stroke-linecap="round"><path d="M540 316 L558 300"></path><path d="M540 316 L528 304"></path></g>
<circle cx="540" cy="316" r="3.5" fill="#23201C" stroke="none"></circle>

<path d="M584 330 l30 0 l0 40 a15 15 0 0 1 -30 0 Z" fill="#E0A455"></path>
<g fill="#3FA463" stroke="#23201C" stroke-width="3"><path d="M586 332 l12 0 l0 38 a8 8 0 0 1 -12 5 Z"></path><path d="M612 332 l-12 0 l0 43 a8 8 0 0 0 12 -5 Z"></path></g>

<g stroke="#A9AEB5" stroke-width="3" fill="none"><path d="M512 412 V450"></path><path d="M564 412 V450"></path></g>
<g fill="#D6A23E">
<path d="M512 448 q -14 8 -14 26 q 0 18 14 26 q 14 -8 14 -26 q 0 -18 -14 -26 Z"></path>
<path d="M564 448 q -14 8 -14 26 q 0 18 14 26 q 14 -8 14 -26 q 0 -18 -14 -26 Z"></path>
</g>
<g stroke="#9A6F24" stroke-width="1.6" opacity="0.7" fill="none"><path d="M500 460 q 12 5 24 0 M499 470 q 13 6 26 0 M500 480 q 12 5 24 0 M552 460 q 12 5 24 0 M551 470 q 13 6 26 0 M552 480 q 12 5 24 0"></path></g>

<polyline points="470,236 448,220 426,256 404,220 382,256 362,234 342,250" fill="none" stroke="#E9ECF1" stroke-width="9"></polyline>
<polyline points="470,236 448,220 426,256 404,220 382,256 362,234 342,250" fill="none" stroke="#23201C" stroke-width="2.5"></polyline>

<path d="M348 250 Q 268 288 150 292" fill="none" stroke="#A9742E" stroke-width="12"></path>
<path d="M250 276 q -10 12 -24 12" fill="none" stroke="#A9742E" stroke-width="7"></path>

<g fill="#2E9BE0">
<ellipse cx="276" cy="252" rx="12" ry="40" transform="rotate(118 276 252)"></ellipse>
<ellipse cx="292" cy="266" rx="12" ry="36" transform="rotate(132 292 266)"></ellipse>
<ellipse cx="304" cy="282" rx="11" ry="30" transform="rotate(146 304 282)"></ellipse>
</g>

<g fill="#2E9BE0">
<ellipse cx="236" cy="150" rx="13" ry="44" transform="rotate(34 236 150)"></ellipse>
<ellipse cx="258" cy="158" rx="13" ry="46" transform="rotate(52 258 158)"></ellipse>
<ellipse cx="278" cy="172" rx="13" ry="42" transform="rotate(68 278 172)"></ellipse>
<ellipse cx="292" cy="190" rx="12" ry="36" transform="rotate(82 292 190)"></ellipse>
</g>

<g stroke="#23201C" stroke-width="3"><path d="M150 270 v22 M142 296 l8 -6 8 6" fill="none"></path><path d="M178 270 v22 M170 296 l8 -6 8 6" fill="none"></path></g>
<g stroke="#E58A2E" stroke-width="5" fill="none"><path d="M150 270 v22 M142 295 l8 -6 8 6"></path><path d="M178 270 v22 M170 295 l8 -6 8 6"></path></g>

<ellipse cx="180" cy="214" rx="72" ry="58" fill="#2E9BE0"></ellipse>
<ellipse cx="150" cy="236" rx="42" ry="40" fill="#FBF3DE"></ellipse>
<path d="M204 196 q 28 18 30 50 q -26 -6 -38 -24 q 4 -16 8 -26 Z" fill="#1C6FB0"></path>
<g stroke="#1C6FB0" stroke-width="2.5" fill="none"><path d="M210 210 q 14 14 16 34 M222 206 q 12 16 12 36"></path></g>

<ellipse cx="120" cy="152" rx="55" ry="52" fill="#2E9BE0"></ellipse>
<g fill="#2E9BE0"><ellipse cx="100" cy="104" rx="9" ry="20" transform="rotate(-16 100 104)"></ellipse><ellipse cx="122" cy="100" rx="9" ry="22"></ellipse></g>

<circle cx="118" cy="142" r="20" fill="#FFFFFF"></circle>
<circle cx="122" cy="144" r="12" fill="#F6A93A" stroke="#23201C" stroke-width="2"></circle>
<circle cx="123" cy="145" r="6.5" fill="#23201C" stroke="none"></circle>
<circle cx="126" cy="140" r="2.6" fill="#FFFFFF" stroke="none"></circle>

<path d="M84 146 L36 130 L70 160 Z" fill="#F6A93A"></path>
<path d="M70 162 L38 180 L86 172 Z" fill="#F6A93A"></path>
<path d="M70 164 q -10 9 -21 9 q 9 8 23 4 Z" fill="#E8607A"></path>

</g>
</svg>
